<svg xmlns="http://www.w3.org/2000/svg" viewBox="0 0 1300 280" role="img" aria-label="Umbrella Automation logo for dark backgrounds">
  <svg x="0" y="20" width="240" height="240" viewBox="70 92 116 102">
    <path d="M 126.48 98.88 C 127.20 98.96 127.92 99.04 128.64 99.12 C 145.99 114.08 163.36 129.04 180.72 144.00 C 180.72 146.32 180.72 148.64 180.72 150.96 C 162.88 135.68 145.04 120.40 127.20 105.12 C 127.04 105.12 126.88 105.12 126.72 105.12 C 109.84 119.28 92.96 133.44 76.08 147.60 C 76.08 145.20 76.08 142.80 76.08 140.40 C 93.77 127.76 108.93 111.87 126.48 98.88 Z" fill="#ffffff"/>
    <path d="M 91.68 183.60 C 115.28 183.60 138.88 183.60 162.48 183.60 C 162.48 170.48 162.48 157.36 162.48 144.24 C 164.32 146.08 166.16 147.92 168.00 149.76 C 168.00 159.52 168.00 169.28 168.00 179.04 C 168.00 181.41 168.81 187.66 167.28 188.64 C 165.78 189.94 150.75 189.12 147.36 189.12 C 133.36 189.12 119.36 189.12 105.36 189.12 C 99.28 189.12 91.39 189.95 86.16 188.64 C 86.08 179.04 86.00 169.44 85.92 159.84 C 87.84 157.92 89.76 156.00 91.68 154.08 C 91.68 163.92 91.68 173.76 91.68 183.60 Z" fill="#ffffff"/>
    <g stroke="#5fc1ec" stroke-width="1.8" stroke-linecap="round">
      <line x1="130" y1="143" x2="161" y2="143"/>
      <line x1="97" y1="163" x2="120" y2="163"/>
      <line x1="135" y1="175" x2="161" y2="175"/>
    </g>
    <circle cx="130" cy="143" r="4.4" fill="#5fc1ec"/>
    <circle cx="97" cy="163" r="4.4" fill="#5fc1ec"/>
    <circle cx="135" cy="175" r="4.4" fill="#5fc1ec"/>
  </svg>
  <text x="280" y="130"
        font-family='"Eurostile","Eurostile LT W01","Microgramma D","Saira","Aldrich","Antonio",system-ui,sans-serif'
        font-weight="900" font-size="130" letter-spacing="3.5"
        fill="#1A9BE8">UMBRELLA</text>
  <text x="280" y="240"
        font-family='"Eurostile","Eurostile LT W01","Microgramma D","Saira","Aldrich","Antonio",system-ui,sans-serif'
        font-weight="900" font-size="130" letter-spacing="3.5"
        fill="#ffffff">AUTOMATION</text>
</svg>
